<svg xmlns="http://www.w3.org/2000/svg" width="900" height="520" viewBox="0 0 900 520"><rect width="100%" height="100%" fill="#fbfdff"/><text x="20" y="28" font-size="18" font-weight="700">Task 2 medical knowledge graph overview</text><line x1="450.0" y1="280.0" x2="405.9" y2="111.7" stroke="#b9c6d4" stroke-width="1.5"/><line x1="450.0" y1="280.0" x2="405.9" y2="448.3" stroke="#b9c6d4" stroke-width="1.5"/><line x1="450.0" y1="280.0" x2="152.6" y2="232.1" stroke="#b9c6d4" stroke-width="1.5"/><line x1="760.0" y1="280.0" x2="578.8" y2="434.6" stroke="#b9c6d4" stroke-width="1.5"/><line x1="760.0" y1="280.0" x2="578.8" y2="125.4" stroke="#b9c6d4" stroke-width="1.5"/><line x1="760.0" y1="280.0" x2="710.8" y2="188.1" stroke="#b9c6d4" stroke-width="1.5"/><line x1="710.8" y1="371.9" x2="247.0" y2="408.5" stroke="#b9c6d4" stroke-width="1.5"/><line x1="578.8" y1="434.6" x2="578.8" y2="125.4" stroke="#b9c6d4" stroke-width="1.5"/><line x1="578.8" y1="434.6" x2="710.8" y2="188.1" stroke="#b9c6d4" stroke-width="1.5"/><circle cx="450.0" cy="280.0" r="21" fill="#246bfe" opacity="0.92"/><text x="450.0" y="318.0" text-anchor="middle" font-size="12">2型糖尿病</text><circle cx="760.0" cy="280.0" r="21" fill="#246bfe" opacity="0.92"/><text x="760.0" y="318.0" text-anchor="middle" font-size="12">冠心病</text><circle cx="710.8" cy="371.9" r="21" fill="#246bfe" opacity="0.92"/><text x="710.8" y="409.9" text-anchor="middle" font-size="12">支气管哮喘急性发作</text><circle cx="578.8" cy="434.6" r="21" fill="#246bfe" opacity="0.92"/><text x="578.8" y="472.6" text-anchor="middle" font-size="12">高血压</text><circle cx="405.9" cy="448.3" r="21" fill="#0f8f70" opacity="0.92"/><text x="405.9" y="486.3" text-anchor="middle" font-size="12">二甲双胍</text><circle cx="247.0" cy="408.5" r="21" fill="#0f8f70" opacity="0.92"/><text x="247.0" y="446.5" text-anchor="middle" font-size="12">布洛芬</text><circle cx="152.6" cy="327.9" r="21" fill="#0f8f70" opacity="0.92"/><text x="152.6" y="365.9" text-anchor="middle" font-size="12">氨氯地平</text><circle cx="152.6" cy="232.1" r="21" fill="#0f8f70" opacity="0.92"/><text x="152.6" y="270.1" text-anchor="middle" font-size="12">辛伐他汀</text><circle cx="247.0" cy="151.5" r="21" fill="#0f8f70" opacity="0.92"/><text x="247.0" y="189.5" text-anchor="middle" font-size="12">阿司匹林</text><circle cx="405.9" cy="111.7" r="21" fill="#0f8f70" opacity="0.92"/><text x="405.9" y="149.7" text-anchor="middle" font-size="12">尿常规</text><circle cx="578.8" cy="125.4" r="21" fill="#0f8f70" opacity="0.92"/><text x="578.8" y="163.4" text-anchor="middle" font-size="12">心电图</text><circle cx="710.8" cy="188.1" r="21" fill="#0f8f70" opacity="0.92"/><text x="710.8" y="226.1" text-anchor="middle" font-size="12">肝功能</text></svg>